<svg xmlns="http://www.w3.org/2000/svg" width="766.558" height="730.417" viewBox="0 0 766.558 730.417">
  <path id="star" d="M154.864,731.7a13.708,13.708,0,0,1-13.515-16.04l42.412-247.225L4.139,293.369a13.715,13.715,0,0,1,7.615-23.394L259.967,233.9,370.984,8.973a13.7,13.7,0,0,1,12.294-7.656h0a13.669,13.669,0,0,1,12.294,7.656l111,224.929L754.8,269.975a13.715,13.715,0,0,1,7.615,23.394L582.8,468.463l42.4,247.212a13.715,13.715,0,0,1-19.909,14.462L383.278,613.425,161.244,730.136A13.828,13.828,0,0,1,154.864,731.7ZM43.2,293.122,208.074,453.836a13.72,13.72,0,0,1,3.938,12.143L173.086,692.9,376.9,585.764a13.663,13.663,0,0,1,12.774,0L593.457,692.9,554.544,465.979a13.732,13.732,0,0,1,3.938-12.143L723.354,293.122,495.516,260.013a13.717,13.717,0,0,1-10.332-7.505L383.278,46.061,281.372,252.521a13.717,13.717,0,0,1-10.332,7.505Z" transform="translate(0 -1.317)" fill="#fff" opacity="0.05"/>
</svg>
